<?xml version="1.0" encoding="utf-8"?>
<!-- Generator: Adobe Illustrator 16.0.0, SVG Export Plug-In . SVG Version: 6.00 Build 0)  -->
<!DOCTYPE svg PUBLIC "-//W3C//DTD SVG 1.1//EN" "http://www.w3.org/Graphics/SVG/1.1/DTD/svg11.dtd">
<svg version="1.1" id="Layer_1" xmlns="http://www.w3.org/2000/svg" xmlns:xlink="http://www.w3.org/1999/xlink" x="0px" y="0px"
	 width="671.033px" height="745.99px" viewBox="0 0 671.033 745.99" enable-background="new 0 0 671.033 745.99"
	 xml:space="preserve">
<g>
	<polygon fill="#263B80" points="107.209,0 81.157,0 38.326,0 38.326,502.323 81.157,502.323 107.209,502.323 150.051,502.323 
		150.051,0 	"/>
	<path fill="#82BC41" d="M94.158,556.033c26.041,0,48.22,9.189,66.681,27.619c18.325,18.367,27.527,40.843,27.527,67.377
		c0,25.991-9.203,48.344-27.527,66.996c-18.46,18.683-40.64,27.965-66.681,27.965c-25.96,0-48.238-9.282-66.643-27.965
		C9.127,699.373,0,677.021,0,651.029c0-26.534,9.127-49.01,27.515-67.377C45.92,565.223,68.198,556.033,94.158,556.033z"/>
</g>
<g>
	<polygon fill="#253C7F" points="347.27,168.892 363.363,168.892 363.363,143.185 347.27,143.185 212.918,143.185 196.825,143.185 
		196.825,405.688 212.918,405.688 346.188,405.688 362.281,405.688 362.281,379.995 346.188,379.995 239.154,379.995 
		239.154,276.843 346.188,276.843 362.281,276.843 362.281,251.144 346.188,251.144 239.154,251.144 239.154,168.892 	"/>
	<polygon fill="#253C7F" points="551.479,168.892 567.574,168.892 567.574,143.185 551.479,143.185 417.105,143.185 
		401.035,143.185 401.035,405.688 417.105,405.688 550.396,405.688 566.492,405.688 566.492,379.995 550.396,379.995 
		443.34,379.995 443.34,276.843 550.396,276.843 566.492,276.843 566.492,251.144 550.396,251.144 443.34,251.144 443.34,168.892 	
		"/>
	<polygon fill="#253C7F" points="640.561,143.185 630.773,143.185 614.703,143.185 614.703,331.825 630.773,331.825 
		640.561,331.825 656.654,331.825 656.654,143.185 	"/>
	<g>
		<path fill="#82BC41" d="M220.259,458.966c0.143,0.016,0.446,0.035,0.918,0.053v11.248c-0.683-0.078-1.295-0.131-1.836-0.16
			c-0.541-0.021-0.964-0.033-1.316-0.033c-4.4,0-7.364,1.434-8.871,4.311c-0.847,1.611-1.271,4.105-1.271,7.465v20.053h-11.059
			v-41.953h10.47v7.313c1.694-2.793,3.177-4.707,4.423-5.729c2.049-1.73,4.73-2.588,8.001-2.588
			C219.929,458.942,220.119,458.956,220.259,458.966z"/>
		<path fill="#82BC41" d="M257.318,460.796c2.939,1.309,5.342,3.381,7.246,6.203c1.74,2.496,2.824,5.389,3.365,8.672
			c0.281,1.93,0.398,4.717,0.354,8.336h-30.564c0.164,4.205,1.623,7.158,4.398,8.852c1.672,1.049,3.672,1.576,6.047,1.576
			c2.494,0,4.518-0.641,6.094-1.928c0.848-0.689,1.578-1.652,2.236-2.885h11.223c-0.307,2.488-1.67,5.014-4.07,7.584
			c-3.766,4.082-9.035,6.117-15.787,6.117c-5.602,0-10.518-1.725-14.777-5.164c-4.281-3.441-6.4-9.041-6.4-16.795
			c0-7.271,1.931-12.842,5.767-16.719c3.857-3.883,8.871-5.814,15.012-5.814C251.105,458.831,254.4,459.483,257.318,460.796z
			 M240.918,470.271c-1.553,1.602-2.541,3.766-2.918,6.494h18.895c-0.213-2.912-1.178-5.117-2.939-6.623
			c-1.742-1.506-3.906-2.266-6.494-2.266C244.658,467.876,242.447,468.671,240.918,470.271z"/>
		<path fill="#82BC41" d="M301.27,474.999c-0.188-1.57-0.729-2.982-1.576-4.24c-1.223-1.693-3.152-2.541-5.74-2.541
			c-3.695,0-6.236,1.842-7.602,5.512c-0.729,1.941-1.082,4.529-1.082,7.752c0,3.072,0.354,5.543,1.082,7.408
			c1.318,3.494,3.766,5.238,7.412,5.238c2.564,0,4.4-0.699,5.482-2.08c1.059-1.389,1.742-3.184,1.977-5.389h11.176
			c-0.258,3.334-1.457,6.494-3.6,9.465c-3.459,4.805-8.564,7.199-15.316,7.199c-6.754,0-11.719-2-14.895-6
			c-3.201-4.006-4.775-9.193-4.775-15.576c0-7.195,1.74-12.799,5.27-16.799c3.529-4.002,8.377-6.008,14.564-6.008
			c5.271,0,9.576,1.184,12.918,3.547c3.363,2.359,5.342,6.529,5.953,12.512H301.27L301.27,474.999z"/>
		<path fill="#82BC41" d="M345.693,458.966c0.141,0.016,0.471,0.035,0.941,0.053v11.248c-0.684-0.078-1.295-0.131-1.836-0.16
			c-0.541-0.021-0.988-0.033-1.316-0.033c-4.4,0-7.365,1.434-8.895,4.311c-0.824,1.611-1.271,4.105-1.271,7.465v20.053h-11.035
			v-41.953h10.471v7.313c1.695-2.793,3.178-4.707,4.424-5.729c2.047-1.73,4.73-2.588,8-2.588
			C345.387,458.942,345.576,458.956,345.693,458.966z"/>
		<path fill="#82BC41" d="M366.352,459.948v25.287c0,2.385,0.307,4.184,0.871,5.389c0.988,2.129,2.939,3.193,5.857,3.193
			c3.719,0,6.26-1.512,7.646-4.541c0.707-1.641,1.082-3.811,1.082-6.506v-22.822h11.107v41.951h-10.66v-5.93
			c-0.094,0.129-0.352,0.518-0.752,1.16c-0.424,0.641-0.895,1.199-1.459,1.688c-1.719,1.547-3.389,2.596-4.965,3.158
			c-1.623,0.561-3.484,0.848-5.648,0.848c-6.188,0-10.354-2.229-12.492-6.699c-1.199-2.459-1.813-6.096-1.813-10.891v-25.287h11.225
			V459.948z"/>
		<path fill="#82BC41" d="M417.221,454.942h-11.129v-10.125h11.129V454.942z M406.094,459.948h11.129v41.951h-11.129V459.948z"/>
		<path fill="#82BC41" d="M425.906,468.142v-7.813h5.855V448.63h10.85v11.699h6.822v7.813h-6.822v22.176
			c0,1.719,0.211,2.789,0.656,3.213c0.447,0.43,1.768,0.631,4,0.631c0.33,0,0.686,0,1.063-0.02c0.375-0.008,0.727-0.029,1.104-0.059
			v8.207l-5.199,0.186c-5.199,0.184-8.729-0.717-10.637-2.699c-1.223-1.252-1.836-3.188-1.836-5.805v-25.83H425.906L425.906,468.142
			z"/>
		<path fill="#82BC41" d="M511.176,460.101c1.811,0.711,3.436,1.982,4.895,3.771c1.178,1.465,1.977,3.264,2.375,5.389
			c0.281,1.416,0.4,3.482,0.4,6.199l-0.07,26.439h-11.248v-26.711c0-1.588-0.258-2.898-0.775-3.924
			c-0.988-1.951-2.752-2.93-5.389-2.93c-3.035,0-5.105,1.266-6.281,3.777c-0.59,1.328-0.869,2.939-0.869,4.811v24.977h-11.059
			v-24.977c0-2.494-0.26-4.299-0.754-5.428c-0.941-2.025-2.756-3.043-5.438-3.043c-3.129,0-5.246,1.018-6.307,3.043
			c-0.586,1.15-0.895,2.875-0.895,5.15v25.254h-11.127v-41.875h10.658v6.117c1.363-2.176,2.658-3.734,3.859-4.658
			c2.117-1.641,4.895-2.465,8.281-2.465c3.199,0,5.789,0.711,7.766,2.123c1.6,1.309,2.799,2.988,3.623,5.041
			c1.436-2.463,3.225-4.275,5.342-5.43c2.258-1.152,4.773-1.734,7.553-1.734C507.574,459.019,509.385,459.384,511.176,460.101z"/>
		<path fill="#82BC41" d="M558.633,460.796c2.918,1.309,5.342,3.381,7.248,6.203c1.719,2.496,2.822,5.389,3.34,8.672
			c0.283,1.93,0.424,4.717,0.355,8.336h-30.543c0.166,4.205,1.625,7.158,4.377,8.852c1.672,1.049,3.693,1.576,6.047,1.576
			c2.496,0,4.543-0.641,6.096-1.928c0.846-0.689,1.6-1.652,2.26-2.885h11.199c-0.307,2.488-1.646,5.014-4.07,7.584
			c-3.742,4.082-9.014,6.117-15.789,6.117c-5.576,0-10.494-1.725-14.775-5.164c-4.258-3.441-6.4-9.041-6.4-16.795
			c0-7.271,1.93-12.842,5.787-16.719c3.859-3.883,8.848-5.814,14.988-5.814C552.422,458.831,555.691,459.483,558.633,460.796z
			 M542.209,470.271c-1.551,1.602-2.518,3.766-2.918,6.494h18.895c-0.188-2.912-1.176-5.117-2.916-6.623
			c-1.742-1.506-3.908-2.266-6.494-2.266C545.951,467.876,543.762,468.671,542.209,470.271z"/>
		<path fill="#82BC41" d="M611.314,462.353c2.754,2.271,4.143,6.035,4.143,11.295v28.252h-11.248v-25.518
			c0-2.211-0.307-3.9-0.895-5.082c-1.059-2.152-3.082-3.229-6.094-3.229c-3.693,0-6.234,1.576-7.6,4.729
			c-0.73,1.672-1.084,3.801-1.084,6.389v22.711h-10.963v-41.875h10.611v6.117c1.41-2.152,2.729-3.705,3.998-4.658
			c2.236-1.693,5.082-2.541,8.541-2.541C605.055,458.942,608.586,460.083,611.314,462.353z"/>
		<path fill="#82BC41" d="M623.691,468.142v-7.813h5.859V448.63h10.846v11.699h6.824v7.813h-6.824v22.176
			c0,1.719,0.234,2.789,0.66,3.213c0.447,0.43,1.764,0.631,4,0.631c0.328,0,0.682,0,1.059-0.02c0.375-0.008,0.752-0.029,1.105-0.059
			v8.207l-5.201,0.186c-5.176,0.184-8.729-0.717-10.635-2.699c-1.223-1.252-1.834-3.188-1.834-5.805v-25.83H623.691L623.691,468.142
			z"/>
	</g>
	<path fill="#82BC41" d="M635.668,352.009c9.789,0,18.117,3.439,25.035,10.369c6.871,6.893,10.33,15.334,10.33,25.293
		c0,9.76-3.459,18.152-10.33,25.166c-6.918,7.01-15.246,10.504-25.035,10.504c-9.766,0-18.117-3.494-25.035-10.504
		c-6.895-7.014-10.328-15.406-10.328-25.166c0-9.959,3.434-18.4,10.328-25.293C617.551,355.45,625.902,352.009,635.668,352.009z"/>
</g>
</svg>
