<?xml version="1.0" encoding="utf-8"?>
<!-- Generator: Adobe Illustrator 16.0.0, SVG Export Plug-In . SVG Version: 6.00 Build 0)  -->
<!DOCTYPE svg PUBLIC "-//W3C//DTD SVG 1.1//EN" "http://www.w3.org/Graphics/SVG/1.1/DTD/svg11.dtd">
<svg version="1.1" id="Layer_1" xmlns="http://www.w3.org/2000/svg" xmlns:xlink="http://www.w3.org/1999/xlink" x="0px" y="0px" viewBox="0 0 476.168 358.716" enable-background="new 0 0 476.168 358.716"
	 xml:space="preserve">
<g>
	<polygon fill="#263A7F" points="152.405,25.707 168.499,25.707 168.499,0 152.405,0 18.054,0 1.96,0 1.96,262.505 18.054,262.505 
		151.323,262.505 167.417,262.505 167.417,236.811 151.323,236.811 44.289,236.811 44.289,133.658 151.323,133.658 167.417,133.658 
		167.417,107.959 151.323,107.959 44.289,107.959 44.289,25.707 	"/>
	<polygon fill="#263A7F" points="356.615,25.707 372.71,25.707 372.71,0 356.615,0 222.24,0 206.17,0 206.17,262.505 
		222.24,262.505 355.533,262.505 371.628,262.505 371.628,236.811 355.533,236.811 248.475,236.811 248.475,133.658 
		355.533,133.658 371.628,133.658 371.628,107.959 355.533,107.959 248.475,107.959 248.475,25.707 	"/>
	<polygon fill="#263A7F" points="445.697,0 435.909,0 419.839,0 419.839,188.641 435.909,188.641 445.697,188.641 461.791,188.641 
		461.791,0 	"/>
	<g>
		<path fill="#82BC00" d="M25.395,315.781c0.142,0.017,0.446,0.035,0.918,0.054v11.247c-0.683-0.078-1.295-0.13-1.836-0.16
			c-0.541-0.022-0.964-0.034-1.317-0.034c-4.4,0-7.364,1.434-8.871,4.311c-0.846,1.612-1.27,4.105-1.27,7.465v20.053H1.96v-41.953
			h10.47v7.313c1.694-2.794,3.177-4.707,4.423-5.73c2.049-1.729,4.73-2.587,8.001-2.587
			C25.065,315.758,25.254,315.771,25.395,315.781z"/>
		<path fill="#82BC00" d="M62.453,317.611c2.94,1.31,5.342,3.382,7.247,6.204c1.741,2.495,2.824,5.389,3.365,8.672
			c0.281,1.929,0.399,4.717,0.354,8.335H42.854c0.164,4.205,1.623,7.158,4.398,8.852c1.672,1.049,3.672,1.577,6.047,1.577
			c2.494,0,4.519-0.641,6.094-1.929c0.848-0.688,1.578-1.652,2.236-2.884h11.224c-0.307,2.489-1.671,5.013-4.071,7.584
			c-3.765,4.082-9.035,6.117-15.787,6.117c-5.601,0-10.518-1.724-14.777-5.164c-4.281-3.442-6.4-9.042-6.4-16.796
			c0-7.27,1.93-12.841,5.766-16.717c3.858-3.883,8.871-5.816,15.012-5.816C56.241,315.646,59.536,316.299,62.453,317.611z
			 M46.053,327.087c-1.552,1.6-2.54,3.765-2.917,6.494h18.894c-0.212-2.912-1.177-5.118-2.94-6.623
			c-1.741-1.507-3.906-2.266-6.494-2.266C49.794,324.692,47.583,325.486,46.053,327.087z"/>
		<path fill="#82BC00" d="M106.405,331.815c-0.188-1.57-0.729-2.982-1.576-4.24c-1.223-1.693-3.152-2.541-5.741-2.541
			c-3.694,0-6.235,1.841-7.6,5.511c-0.729,1.942-1.083,4.53-1.083,7.753c0,3.071,0.354,5.542,1.083,7.407
			c1.317,3.494,3.765,5.239,7.412,5.239c2.564,0,4.399-0.699,5.481-2.081c1.059-1.388,1.742-3.183,1.977-5.388h11.176
			c-0.258,3.334-1.458,6.493-3.599,9.465c-3.459,4.804-8.565,7.199-15.317,7.199c-6.754,0-11.719-2-14.895-6
			c-3.2-4.006-4.775-9.193-4.775-15.576c0-7.195,1.74-12.8,5.27-16.8c3.529-4.001,8.376-6.006,14.564-6.006
			c5.271,0,9.576,1.182,12.918,3.546c3.364,2.359,5.342,6.53,5.953,12.512H106.405z"/>
		<path fill="#82BC00" d="M150.829,315.781c0.141,0.017,0.471,0.035,0.941,0.054v11.247c-0.684-0.078-1.295-0.13-1.836-0.16
			c-0.541-0.022-0.988-0.034-1.317-0.034c-4.399,0-7.364,1.434-8.894,4.311c-0.823,1.612-1.271,4.105-1.271,7.465v20.053h-11.035
			v-41.953h10.471v7.313c1.694-2.794,3.178-4.707,4.424-5.73c2.047-1.729,4.729-2.587,8-2.587
			C150.523,315.758,150.712,315.771,150.829,315.781z"/>
		<path fill="#82BC00" d="M171.487,316.763v25.288c0,2.384,0.307,4.183,0.871,5.389c0.988,2.129,2.94,3.193,5.858,3.193
			c3.718,0,6.259-1.511,7.647-4.54c0.706-1.642,1.082-3.812,1.082-6.506v-22.824h11.106v41.953h-10.659v-5.93
			c-0.094,0.129-0.353,0.517-0.753,1.159c-0.424,0.641-0.895,1.199-1.459,1.688c-1.718,1.547-3.388,2.595-4.965,3.159
			c-1.623,0.559-3.483,0.847-5.647,0.847c-6.188,0-10.354-2.229-12.494-6.699c-1.199-2.46-1.811-6.095-1.811-10.89v-25.288H171.487z
			"/>
		<path fill="#82BC00" d="M222.357,311.758h-11.129v-10.124h11.129V311.758z M211.229,316.763h11.129v41.953h-11.129V316.763z"/>
		<path fill="#82BC00" d="M231.041,324.957v-7.813h5.857v-11.699h10.849v11.699h6.822v7.813h-6.822v22.176
			c0,1.718,0.211,2.789,0.657,3.213c0.447,0.429,1.766,0.63,4,0.63c0.329,0,0.684,0,1.061-0.019
			c0.375-0.007,0.728-0.029,1.104-0.059v8.207l-5.199,0.187c-5.2,0.183-8.729-0.718-10.636-2.7
			c-1.223-1.252-1.836-3.188-1.836-5.805v-25.83H231.041z"/>
		<path fill="#82BC00" d="M316.311,316.917c1.811,0.711,3.436,1.981,4.895,3.77c1.177,1.465,1.976,3.265,2.375,5.389
			c0.282,1.417,0.4,3.483,0.4,6.2l-0.07,26.44h-11.247v-26.712c0-1.588-0.258-2.899-0.776-3.923
			c-0.988-1.952-2.753-2.931-5.388-2.931c-3.036,0-5.106,1.266-6.283,3.778c-0.589,1.329-0.869,2.94-0.869,4.811v24.977h-11.059
			v-24.977c0-2.494-0.259-4.299-0.754-5.429c-0.941-2.024-2.754-3.042-5.436-3.042c-3.13,0-5.246,1.018-6.307,3.042
			c-0.587,1.152-0.894,2.875-0.894,5.152v25.253H263.77V316.84h10.658v6.118c1.364-2.177,2.659-3.736,3.859-4.659
			c2.118-1.641,4.895-2.464,8.283-2.464c3.198,0,5.788,0.711,7.764,2.122c1.6,1.308,2.8,2.988,3.624,5.042
			c1.435-2.464,3.224-4.277,5.341-5.43c2.259-1.152,4.775-1.734,7.553-1.734C312.71,315.835,314.521,316.199,316.311,316.917z"/>
		<path fill="#82BC00" d="M363.769,317.611c2.918,1.31,5.342,3.382,7.248,6.204c1.718,2.495,2.822,5.389,3.34,8.672
			c0.283,1.929,0.424,4.717,0.354,8.335h-30.542c0.166,4.205,1.625,7.158,4.377,8.852c1.671,1.049,3.694,1.577,6.047,1.577
			c2.495,0,4.543-0.641,6.095-1.929c0.847-0.688,1.601-1.652,2.26-2.884h11.199c-0.307,2.489-1.647,5.013-4.07,7.584
			c-3.742,4.082-9.013,6.117-15.788,6.117c-5.577,0-10.495-1.724-14.776-5.164c-4.259-3.442-6.401-9.042-6.401-16.796
			c0-7.27,1.93-12.841,5.788-16.717c3.859-3.883,8.848-5.816,14.988-5.816C357.558,315.646,360.828,316.299,363.769,317.611z
			 M347.345,327.087c-1.552,1.6-2.518,3.765-2.918,6.494h18.895c-0.188-2.912-1.176-5.118-2.916-6.623
			c-1.743-1.507-3.908-2.266-6.495-2.266C351.086,324.692,348.897,325.486,347.345,327.087z"/>
		<path fill="#82BC00" d="M416.451,319.169c2.753,2.271,4.141,6.035,4.141,11.295v28.252h-11.247v-25.518
			c0-2.212-0.306-3.9-0.894-5.082c-1.06-2.153-3.082-3.229-6.095-3.229c-3.693,0-6.234,1.576-7.6,4.729
			c-0.729,1.671-1.083,3.8-1.083,6.388v22.712h-10.963V316.84h10.611v6.118c1.411-2.153,2.729-3.706,3.999-4.659
			c2.236-1.693,5.082-2.541,8.541-2.541C410.191,315.758,413.722,316.898,416.451,319.169z"/>
		<path fill="#82BC00" d="M428.827,324.957v-7.813h5.859v-11.699h10.847v11.699h6.824v7.813h-6.824v22.176
			c0,1.718,0.234,2.789,0.659,3.213c0.447,0.429,1.764,0.63,4,0.63c0.329,0,0.682,0,1.059-0.019
			c0.375-0.007,0.752-0.029,1.106-0.059v8.207l-5.201,0.187c-5.176,0.183-8.729-0.718-10.636-2.7
			c-1.223-1.252-1.834-3.188-1.834-5.805v-25.83H428.827z"/>
	</g>
	<path fill="#82BC00" d="M440.804,208.824c9.788,0,18.117,3.44,25.035,10.369c6.87,6.894,10.329,15.335,10.329,25.294
		c0,9.759-3.459,18.152-10.329,25.165c-6.918,7.011-15.247,10.505-25.035,10.505c-9.766,0-18.117-3.494-25.035-10.505
		c-6.895-7.013-10.329-15.406-10.329-25.165c0-9.959,3.435-18.4,10.329-25.294C422.687,212.265,431.038,208.824,440.804,208.824z"/>
</g>
<g>
	<path fill="#82BC00" d="M468.034,936.238c54.399,0,100.734,19.199,139.299,57.699c38.281,38.369,57.505,85.322,57.505,140.754
		c0,54.297-19.224,100.992-57.505,139.955c-38.564,39.029-84.899,58.42-139.299,58.42c-54.232,0-100.772-19.391-139.222-58.42
		c-38.409-38.963-57.479-85.658-57.479-139.955c0-55.432,19.069-102.385,57.479-140.754
		C367.262,955.438,413.802,936.238,468.034,936.238z"/>
</g>
</svg>
