<?xml version="1.0" encoding="utf-8"?>
<!-- Generator: Adobe Illustrator 16.0.0, SVG Export Plug-In . SVG Version: 6.00 Build 0)  -->
<!DOCTYPE svg PUBLIC "-//W3C//DTD SVG 1.1//EN" "http://www.w3.org/Graphics/SVG/1.1/DTD/svg11.dtd">
<svg version="1.1" id="Layer_1" xmlns="http://www.w3.org/2000/svg" xmlns:xlink="http://www.w3.org/1999/xlink" x="0px" y="0px"
	 width="393.504px" height="1558.401px" viewBox="0 0 393.504 1558.401" enable-background="new 0 0 393.504 1558.401"
	 xml:space="preserve">
<path fill="none" stroke="#D13239" stroke-width="0.25" stroke-dasharray="6" d="M2366.014-111.252"/>
<polyline fill="none" stroke="#FFFFFF" stroke-width="0.5" points="830.583,-273.712 460.574,-273.712 456.449,-273.712 
	149.121,-273.712 "/>
<g>
	<polygon fill="#002F87" points="223.965,0 169.539,0 80.066,0 80.066,1049.371 169.539,1049.371 223.965,1049.371 
		313.463,1049.371 313.463,0 	"/>
	<path fill="#82BC00" d="M196.7,1161.572c54.4,0,100.734,19.199,139.299,57.699c38.281,38.369,57.505,85.322,57.505,140.754
		c0,54.297-19.224,100.992-57.505,139.955c-38.564,39.029-84.899,58.42-139.299,58.42c-54.232,0-100.772-19.391-139.221-58.42
		C19.069,1461.017,0,1414.322,0,1360.025c0-55.432,19.069-102.385,57.479-140.754C95.928,1180.771,142.468,1161.572,196.7,1161.572z
		"/>
</g>
<path fill="none" stroke="#ED1B31" stroke-width="0.5" d="M598.903,1673.134"/>
</svg>
