<?xml version="1.0" encoding="utf-8"?>
<!-- Generator: Adobe Illustrator 18.0.0, SVG Export Plug-In . SVG Version: 6.00 Build 0)  -->
<!DOCTYPE svg PUBLIC "-//W3C//DTD SVG 1.1//EN" "http://www.w3.org/Graphics/SVG/1.1/DTD/svg11.dtd">
<svg version="1.1" id="Layer_1" xmlns="http://www.w3.org/2000/svg" xmlns:xlink="http://www.w3.org/1999/xlink" x="0px" y="0px"
	 width="612px" height="462px" viewBox="0 330 612 462" enable-background="new 0 330 612 462" xml:space="preserve">
<g>
	<polygon fill="#263A7F" points="195.9,363 216.6,363 216.6,330 195.9,330 23.2,330 2.5,330 2.5,667.4 23.2,667.4 194.5,667.4 
		215.2,667.4 215.2,634.3 194.5,634.3 56.9,634.3 56.9,501.8 194.5,501.8 215.2,501.8 215.2,468.8 194.5,468.8 56.9,468.8 56.9,363 
			"/>
	<polygon fill="#263A7F" points="458.3,363 479,363 479,330 458.3,330 285.6,330 265,330 265,667.4 285.6,667.4 457,667.4 
		477.6,667.4 477.6,634.3 457,634.3 319.4,634.3 319.4,501.8 457,501.8 477.6,501.8 477.6,468.8 457,468.8 319.4,468.8 319.4,363 	
		"/>
	<polygon fill="#263A7F" points="572.8,330 560.3,330 539.6,330 539.6,572.4 560.3,572.4 572.8,572.4 593.5,572.4 593.5,330 	"/>
	<g>
		<path fill="#82BC00" d="M32.6,735.8c0.2,0,0.6,0,1.2,0.1v14.5c-0.9-0.1-1.7-0.2-2.4-0.2c-0.7,0-1.2,0-1.7,0
			c-5.7,0-9.5,1.8-11.4,5.5c-1.1,2.1-1.6,5.3-1.6,9.6v25.8H2.5v-53.9H16v9.4c2.2-3.6,4.1-6,5.7-7.4c2.6-2.2,6.1-3.3,10.3-3.3
			C32.2,735.8,32.5,735.8,32.6,735.8z"/>
		<path fill="#82BC00" d="M80.3,738.2c3.8,1.7,6.9,4.3,9.3,8c2.2,3.2,3.6,6.9,4.3,11.1c0.4,2.5,0.5,6.1,0.5,10.7H55.1
			c0.2,5.4,2.1,9.2,5.7,11.4c2.1,1.3,4.7,2,7.8,2c3.2,0,5.8-0.8,7.8-2.5c1.1-0.9,2-2.1,2.9-3.7h14.4c-0.4,3.2-2.1,6.4-5.2,9.7
			c-4.8,5.2-11.6,7.9-20.3,7.9c-7.2,0-13.5-2.2-19-6.6c-5.5-4.4-8.2-11.6-8.2-21.6c0-9.3,2.5-16.5,7.4-21.5c5-5,11.4-7.5,19.3-7.5
			C72.3,735.8,76.5,736.5,80.3,738.2z M59.2,750.5c-2,2.1-3.3,4.8-3.7,8.3h24.3c-0.3-3.7-1.5-6.6-3.8-8.5c-2.2-1.9-5-2.9-8.3-2.9
			C64,747.3,61.2,748.3,59.2,750.5z"/>
		<path fill="#82BC00" d="M136.8,756.5c-0.2-2-0.9-3.8-2-5.4c-1.6-2.2-4.1-3.3-7.4-3.3c-4.7,0-8,2.4-9.8,7.1
			c-0.9,2.5-1.4,5.8-1.4,10c0,3.9,0.5,7.1,1.4,9.5c1.7,4.5,4.8,6.7,9.5,6.7c3.3,0,5.7-0.9,7-2.7c1.4-1.8,2.2-4.1,2.5-6.9H151
			c-0.3,4.3-1.9,8.3-4.6,12.2c-4.4,6.2-11,9.3-19.7,9.3s-15.1-2.6-19.1-7.7c-4.1-5.1-6.1-11.8-6.1-20c0-9.2,2.2-16.5,6.8-21.6
			c4.5-5.1,10.8-7.7,18.7-7.7c6.8,0,12.3,1.5,16.6,4.6c4.3,3,6.9,8.4,7.7,16.1L136.8,756.5L136.8,756.5z"/>
		<path fill="#82BC00" d="M193.9,735.8c0.2,0,0.6,0,1.2,0.1v14.5c-0.9-0.1-1.7-0.2-2.4-0.2s-1.3,0-1.7,0c-5.7,0-9.5,1.8-11.4,5.5
			c-1.1,2.1-1.6,5.3-1.6,9.6v25.8h-14.2v-53.9h13.5v9.4c2.2-3.6,4.1-6,5.7-7.4c2.6-2.2,6.1-3.3,10.3-3.3
			C193.5,735.8,193.7,735.8,193.9,735.8z"/>
		<path fill="#82BC00" d="M220.4,737.1v32.5c0,3.1,0.4,5.4,1.1,6.9c1.3,2.7,3.8,4.1,7.5,4.1c4.8,0,8-1.9,9.8-5.8
			c0.9-2.1,1.4-4.9,1.4-8.4v-29.3h14.3V791h-13.7v-7.6c-0.1,0.2-0.5,0.7-1,1.5s-1.2,1.5-1.9,2.2c-2.2,2-4.4,3.3-6.4,4.1
			c-2.1,0.7-4.5,1.1-7.3,1.1c-8,0-13.3-2.9-16.1-8.6c-1.5-3.2-2.3-7.8-2.3-14v-32.5L220.4,737.1L220.4,737.1z"/>
		<path fill="#82BC00" d="M285.8,730.8h-14.3v-13h14.3V730.8z M271.5,737.1h14.3V791h-14.3V737.1z"/>
		<path fill="#82BC00" d="M296.9,747.6v-10h7.5v-15h13.9v15h8.8v10h-8.8v28.5c0,2.2,0.3,3.6,0.8,4.1c0.6,0.6,2.3,0.8,5.1,0.8
			c0.4,0,0.9,0,1.4,0s0.9,0,1.4-0.1v10.6l-6.7,0.2c-6.7,0.2-11.2-0.9-13.7-3.5c-1.6-1.6-2.4-4.1-2.4-7.5v-33.2L296.9,747.6
			L296.9,747.6z"/>
		<path fill="#82BC00" d="M406.5,737.3c2.3,0.9,4.4,2.5,6.3,4.8c1.5,1.9,2.5,4.2,3.1,6.9c0.4,1.8,0.5,4.5,0.5,8l-0.1,34h-14.5v-34.3
			c0-2-0.3-3.7-1-5c-1.3-2.5-3.5-3.8-6.9-3.8c-3.9,0-6.6,1.6-8.1,4.9c-0.8,1.7-1.1,3.8-1.1,6.2v32.1h-14.2v-32.1c0-3.2-0.3-5.5-1-7
			c-1.2-2.6-3.5-3.9-7-3.9c-4,0-6.7,1.3-8.1,3.9c-0.8,1.5-1.1,3.7-1.1,6.6v32.5H339v-53.8h13.7v7.9c1.8-2.8,3.4-4.8,5-6
			c2.7-2.1,6.3-3.2,10.6-3.2c4.1,0,7.4,0.9,10,2.7c2.1,1.7,3.6,3.8,4.7,6.5c1.8-3.2,4.1-5.5,6.9-7c2.9-1.5,6.1-2.2,9.7-2.2
			C401.9,736,404.2,736.5,406.5,737.3z"/>
		<path fill="#82BC00" d="M467.5,738.2c3.8,1.7,6.9,4.3,9.3,8c2.2,3.2,3.6,6.9,4.3,11.1c0.4,2.5,0.5,6.1,0.5,10.7h-39.3
			c0.2,5.4,2.1,9.2,5.6,11.4c2.1,1.3,4.7,2,7.8,2c3.2,0,5.8-0.8,7.8-2.5c1.1-0.9,2.1-2.1,2.9-3.7h14.4c-0.4,3.2-2.1,6.4-5.2,9.7
			c-4.8,5.2-11.6,7.9-20.3,7.9c-7.2,0-13.5-2.2-19-6.6c-5.5-4.4-8.2-11.6-8.2-21.6c0-9.3,2.5-16.5,7.4-21.5c5-5,11.4-7.5,19.3-7.5
			C459.6,735.8,463.8,736.5,467.5,738.2z M446.4,750.5c-2,2.1-3.2,4.8-3.8,8.3H467c-0.2-3.7-1.5-6.6-3.7-8.5s-5-2.9-8.3-2.9
			C451.2,747.3,448.4,748.3,446.4,750.5z"/>
		<path fill="#82BC00" d="M535.2,740.2c3.5,2.9,5.3,7.8,5.3,14.5V791H526v-32.8c0-2.8-0.4-5-1.1-6.5c-1.4-2.8-4-4.2-7.8-4.2
			c-4.7,0-8,2-9.8,6.1c-0.9,2.1-1.4,4.9-1.4,8.2V791h-14.1v-53.8h13.6v7.9c1.8-2.8,3.5-4.8,5.1-6c2.9-2.2,6.5-3.3,11-3.3
			C527.2,735.8,531.7,737.3,535.2,740.2z"/>
		<path fill="#82BC00" d="M551.2,747.6v-10h7.5v-15h13.9v15h8.8v10h-8.8v28.5c0,2.2,0.3,3.6,0.8,4.1c0.6,0.6,2.3,0.8,5.1,0.8
			c0.4,0,0.9,0,1.4,0s1,0,1.4-0.1v10.6l-6.7,0.2c-6.7,0.2-11.2-0.9-13.7-3.5c-1.6-1.6-2.4-4.1-2.4-7.5v-33.2L551.2,747.6
			L551.2,747.6z"/>
	</g>
	<path fill="#82BC00" d="M566.5,598.4c12.6,0,23.3,4.4,32.2,13.3c8.8,8.9,13.3,19.7,13.3,32.5c0,12.5-4.4,23.3-13.3,32.3
		c-8.9,9-19.6,13.5-32.2,13.5c-12.6,0-23.3-4.5-32.2-13.5S521,656.8,521,644.2c0-12.8,4.4-23.6,13.3-32.5
		C543.3,602.8,554,598.4,566.5,598.4z"/>
</g>
<g>
	<path fill="#82BC00" d="M601.5,1533.4c69.9,0,129.5,24.7,179,74.2c49.2,49.3,73.9,109.7,73.9,180.9c0,69.8-24.7,129.8-73.9,179.9
		c-49.6,50.2-109.1,75.1-179,75.1c-69.7,0-129.5-24.9-178.9-75.1c-49.4-50.1-73.9-110.1-73.9-179.9c0-71.2,24.5-131.6,73.9-180.9
		C472,1558.1,531.8,1533.4,601.5,1533.4z"/>
</g>
</svg>
